<?xml version="1.0" encoding="UTF-8" standalone="no"?>
<!DOCTYPE svg PUBLIC "-//W3C//DTD SVG 1.1//EN"
 "http://www.w3.org/Graphics/SVG/1.1/DTD/svg11.dtd">
<!-- Generated by graphviz version 2.49.0 (20210828.1703)
 -->
<!-- Pages: 1 -->
<svg width="1096pt" height="292pt"
 viewBox="0.00 0.00 1095.56 292.00" xmlns="http://www.w3.org/2000/svg" xmlns:xlink="http://www.w3.org/1999/xlink">
<g id="graph0" class="graph" transform="scale(1 1) rotate(0) translate(4 288)">
<polygon fill="white" stroke="transparent" points="-4,4 -4,-288 1091.56,-288 1091.56,4 -4,4"/>
<g id="clust1" class="cluster">
<title>cluster0</title>
<polygon fill="none" stroke="black" points="8,-8 8,-276 1079.56,-276 1079.56,-8 8,-8"/>
</g>
<!-- source0 -->
<g id="node1" class="node">
<title>source0</title>
<ellipse fill="none" stroke="black" stroke-dasharray="1,5" cx="54.89" cy="-241" rx="38.78" ry="26.74"/>
<text text-anchor="middle" x="54.89" y="-244.8" font-family="Times,serif" font-size="14.00">phase0</text>
<text text-anchor="middle" x="54.89" y="-229.8" font-family="Times,serif" font-size="14.00">source</text>
</g>
<!-- sink0 -->
<g id="node16" class="node">
<title>sink0</title>
<ellipse fill="none" stroke="black" stroke-dasharray="1,5" cx="1032.67" cy="-241" rx="38.78" ry="26.74"/>
<text text-anchor="middle" x="1032.67" y="-244.8" font-family="Times,serif" font-size="14.00">phase0</text>
<text text-anchor="middle" x="1032.67" y="-229.8" font-family="Times,serif" font-size="14.00">sink</text>
</g>
<!-- source0&#45;&gt;sink0 -->
<g id="edge1" class="edge">
<title>source0&#45;&gt;sink0</title>
<path fill="none" stroke="#808080" stroke-dasharray="1,5" d="M93.9,-241C137.2,-241 210.09,-241 272.78,-241 272.78,-241 272.78,-241 814.78,-241 872.82,-241 939.6,-241 983.55,-241"/>
<polygon fill="#808080" stroke="#808080" points="983.67,-244.5 993.67,-241 983.67,-237.5 983.67,-244.5"/>
</g>
<!-- 1 -->
<g id="node2" class="node">
<title>1</title>
<polygon fill="#ccddff" stroke="#808080" points="90.89,-85.5 18.89,-85.5 18.89,-22.5 90.89,-22.5 90.89,-85.5"/>
<text text-anchor="middle" x="54.89" y="-62.5" font-family="MS Gothic" font-size="10.00">1気候変動</text>
<text text-anchor="middle" x="54.89" y="-51.5" font-family="MS Gothic" font-size="10.00">影響の予測</text>
<text text-anchor="middle" x="54.89" y="-40.5" font-family="MS Gothic" font-size="10.00">評価</text>
</g>
<!-- 3 -->
<g id="node4" class="node">
<title>3</title>
<polygon fill="#ff7f50" stroke="#808080" points="201.78,-120.5 129.78,-120.5 129.78,-57.5 201.78,-57.5 201.78,-120.5"/>
<text text-anchor="middle" x="165.78" y="-92" font-family="MS Gothic" font-size="10.00">3営農継続</text>
<text text-anchor="middle" x="165.78" y="-81" font-family="MS Gothic" font-size="10.00">の評価</text>
</g>
<!-- 1&#45;&gt;3 -->
<g id="edge2" class="edge">
<title>1&#45;&gt;3</title>
<path fill="none" stroke="#808080" d="M90.94,-65.27C100.08,-68.2 110.05,-71.41 119.63,-74.49"/>
<polygon fill="#808080" stroke="#808080" points="118.83,-77.91 129.42,-77.63 120.97,-71.24 118.83,-77.91"/>
<text text-anchor="middle" x="109.58" y="-76.43" font-family="Times,serif" font-size="14.00">i</text>
</g>
<!-- 5 -->
<g id="node6" class="node">
<title>5</title>
<polygon fill="#f0e68c" stroke="#808080" points="417.78,-79.5 345.78,-79.5 345.78,-16.5 417.78,-16.5 417.78,-79.5"/>
<text text-anchor="middle" x="381.78" y="-51" font-family="MS Gothic" font-size="10.00">5品目のリ</text>
<text text-anchor="middle" x="381.78" y="-40" font-family="MS Gothic" font-size="10.00">ストアップ</text>
</g>
<!-- 1&#45;&gt;5 -->
<g id="edge6" class="edge">
<title>1&#45;&gt;5</title>
<path fill="none" stroke="#808080" d="M91.21,-50.72C140.24,-46.56 231.74,-40.26 309.78,-43 318.12,-43.29 327,-43.78 335.56,-44.34"/>
<polygon fill="#808080" stroke="#808080" points="335.56,-47.85 345.78,-45.04 336.04,-40.86 335.56,-47.85"/>
<text text-anchor="middle" x="327.11" y="-48.53" font-family="Times,serif" font-size="14.00">c</text>
</g>
<!-- 2 -->
<g id="node3" class="node">
<title>2</title>
<polygon fill="#ccddff" stroke="#808080" points="90.89,-176.5 18.89,-176.5 18.89,-113.5 90.89,-113.5 90.89,-176.5"/>
<text text-anchor="middle" x="54.89" y="-153.5" font-family="MS Gothic" font-size="10.00">2地域社会</text>
<text text-anchor="middle" x="54.89" y="-142.5" font-family="MS Gothic" font-size="10.00">経済状況の</text>
<text text-anchor="middle" x="54.89" y="-131.5" font-family="MS Gothic" font-size="10.00">総合評価</text>
</g>
<!-- 2&#45;&gt;3 -->
<g id="edge3" class="edge">
<title>2&#45;&gt;3</title>
<path fill="none" stroke="#808080" d="M90.94,-126.97C100.27,-122.18 110.48,-116.93 120.24,-111.91"/>
<polygon fill="#808080" stroke="#808080" points="122.13,-114.87 129.42,-107.19 118.93,-108.65 122.13,-114.87"/>
<text text-anchor="middle" x="117.17" y="-119.29" font-family="Times,serif" font-size="14.00">r</text>
</g>
<!-- 12 -->
<g id="node13" class="node">
<title>12</title>
<polygon fill="#f0e68c" stroke="#808080" points="417.78,-181.5 345.78,-181.5 345.78,-118.5 417.78,-118.5 417.78,-181.5"/>
<text text-anchor="middle" x="381.78" y="-153" font-family="MS Gothic" font-size="10.00">12インフ</text>
<text text-anchor="middle" x="381.78" y="-142" font-family="MS Gothic" font-size="10.00">ラの整備</text>
</g>
<!-- 2&#45;&gt;12 -->
<g id="edge16" class="edge">
<title>2&#45;&gt;12</title>
<path fill="none" stroke="#808080" d="M90.97,-145.54C150.15,-146.45 269.79,-148.29 335.32,-149.3"/>
<polygon fill="#808080" stroke="#808080" points="335.31,-152.8 345.36,-149.45 335.41,-145.8 335.31,-152.8"/>
<text text-anchor="middle" x="327.1" y="-153.93" font-family="Times,serif" font-size="14.00">c</text>
</g>
<!-- 4 -->
<g id="node5" class="node">
<title>4</title>
<polygon fill="#ff7f50" stroke="#808080" points="309.78,-130.5 237.78,-130.5 237.78,-67.5 309.78,-67.5 309.78,-130.5"/>
<text text-anchor="middle" x="273.78" y="-102" font-family="MS Gothic" font-size="10.00">4地域協議</text>
<text text-anchor="middle" x="273.78" y="-91" font-family="MS Gothic" font-size="10.00">会設立</text>
</g>
<!-- 3&#45;&gt;4 -->
<g id="edge4" class="edge">
<title>3&#45;&gt;4</title>
<path fill="none" stroke="#808080" d="M201.78,-92.3C209.93,-93.07 218.72,-93.9 227.25,-94.7"/>
<polygon fill="#808080" stroke="#808080" points="227.17,-98.21 237.45,-95.67 227.83,-91.24 227.17,-98.21"/>
<text text-anchor="middle" x="218.61" y="-98.68" font-family="Times,serif" font-size="14.00">i</text>
</g>
<!-- 9 -->
<g id="node10" class="node">
<title>9</title>
<polygon fill="#f0e68c" stroke="#808080" points="741.78,-130.5 669.78,-130.5 669.78,-67.5 741.78,-67.5 741.78,-130.5"/>
<text text-anchor="middle" x="705.78" y="-102" font-family="MS Gothic" font-size="10.00">9農業経営</text>
<text text-anchor="middle" x="705.78" y="-91" font-family="MS Gothic" font-size="10.00">モデル構築</text>
</g>
<!-- 3&#45;&gt;9 -->
<g id="edge10" class="edge">
<title>3&#45;&gt;9</title>
<path fill="none" stroke="#808080" d="M201.95,-70.25C213.09,-65.24 225.67,-60.53 237.78,-58 269.11,-51.46 279.69,-47.11 309.78,-58 329.37,-65.09 327.5,-78.02 345.78,-88 360.09,-95.81 364.59,-97.11 380.78,-99"/>
<path fill="none" stroke="#808080" d="M382.78,-99C480.84,-108.89 596.55,-105.16 659.1,-101.87"/>
<polygon fill="#808080" stroke="#808080" points="659.61,-105.35 669.41,-101.31 659.23,-98.36 659.61,-105.35"/>
<text text-anchor="middle" x="651.77" y="-107.04" font-family="Times,serif" font-size="14.00">i</text>
</g>
<!-- 4&#45;&gt;5 -->
<g id="edge5" class="edge">
<title>4&#45;&gt;5</title>
<path fill="none" stroke="#808080" d="M309.78,-82.16C318.29,-78.07 327.49,-73.64 336.37,-69.37"/>
<polygon fill="#808080" stroke="#808080" points="337.96,-72.49 345.45,-65 334.93,-66.18 337.96,-72.49"/>
<text text-anchor="middle" x="332.78" y="-76.77" font-family="Times,serif" font-size="14.00">i</text>
</g>
<!-- 4&#45;&gt;9 -->
<g id="edge11" class="edge">
<title>4&#45;&gt;9</title>
<path fill="none" stroke="#808080" d="M310.23,-96.96C330.88,-96.28 357.38,-96.28 380.78,-99"/>
<text text-anchor="middle" x="361.88" y="-101.83" font-family="Times,serif" font-size="14.00">i</text>
</g>
<!-- 4&#45;&gt;12 -->
<g id="edge15" class="edge">
<title>4&#45;&gt;12</title>
<path fill="none" stroke="#808080" d="M309.78,-115.84C318.29,-119.93 327.49,-124.36 336.37,-128.63"/>
<polygon fill="#808080" stroke="#808080" points="334.93,-131.82 345.45,-133 337.96,-125.51 334.93,-131.82"/>
<text text-anchor="middle" x="325.46" y="-129.06" font-family="Times,serif" font-size="14.00">i</text>
</g>
<!-- 6 -->
<g id="node7" class="node">
<title>6</title>
<polygon fill="#f0e68c" stroke="#808080" points="525.78,-79.5 453.78,-79.5 453.78,-16.5 525.78,-16.5 525.78,-79.5"/>
<text text-anchor="middle" x="489.78" y="-44.6" font-family="MS Gothic" font-size="13.00">6調査評価</text>
</g>
<!-- 5&#45;&gt;6 -->
<g id="edge7" class="edge">
<title>5&#45;&gt;6</title>
<path fill="none" stroke="#808080" d="M417.78,-48C425.93,-48 434.72,-48 443.25,-48"/>
<polygon fill="#808080" stroke="#808080" points="443.45,-51.5 453.45,-48 443.45,-44.5 443.45,-51.5"/>
<text text-anchor="middle" x="435.33" y="-52.75" font-family="Times,serif" font-size="14.00">i</text>
</g>
<!-- 7 -->
<g id="node8" class="node">
<title>7</title>
<polygon fill="#f0e68c" stroke="#808080" points="633.78,-79.5 561.78,-79.5 561.78,-16.5 633.78,-16.5 633.78,-79.5"/>
<text text-anchor="middle" x="597.78" y="-44.6" font-family="MS Gothic" font-size="13.00">7試験栽培</text>
</g>
<!-- 6&#45;&gt;7 -->
<g id="edge8" class="edge">
<title>6&#45;&gt;7</title>
<path fill="none" stroke="#808080" d="M525.78,-48C533.93,-48 542.72,-48 551.25,-48"/>
<polygon fill="#808080" stroke="#808080" points="551.45,-51.5 561.45,-48 551.45,-44.5 551.45,-51.5"/>
<text text-anchor="middle" x="543.33" y="-52.75" font-family="Times,serif" font-size="14.00">i</text>
</g>
<!-- 8 -->
<g id="node9" class="node">
<title>8</title>
<polygon fill="#f0e68c" stroke="#808080" points="849.78,-79.5 777.78,-79.5 777.78,-16.5 849.78,-16.5 849.78,-79.5"/>
<text text-anchor="middle" x="813.78" y="-51" font-family="MS Gothic" font-size="10.00">8品目転換</text>
<text text-anchor="middle" x="813.78" y="-40" font-family="MS Gothic" font-size="10.00">計画</text>
</g>
<!-- 7&#45;&gt;8 -->
<g id="edge9" class="edge">
<title>7&#45;&gt;8</title>
<path fill="none" stroke="#808080" d="M634.12,-48C670.63,-48 727.73,-48 767.52,-48"/>
<polygon fill="#808080" stroke="#808080" points="767.75,-51.5 777.75,-48 767.75,-44.5 767.75,-51.5"/>
<text text-anchor="middle" x="759.62" y="-52.75" font-family="Times,serif" font-size="14.00">i</text>
</g>
<!-- 7&#45;&gt;9 -->
<g id="edge12" class="edge">
<title>7&#45;&gt;9</title>
<path fill="none" stroke="#808080" d="M633.78,-64.84C642.29,-68.93 651.49,-73.36 660.37,-77.63"/>
<polygon fill="#808080" stroke="#808080" points="658.93,-80.82 669.45,-82 661.96,-74.51 658.93,-80.82"/>
<text text-anchor="middle" x="649.46" y="-78.06" font-family="Times,serif" font-size="14.00">c</text>
</g>
<!-- 15 -->
<g id="node17" class="node">
<title>15</title>
<polygon fill="#f0e68c" stroke="#808080" points="1068.67,-150.5 996.67,-150.5 996.67,-87.5 1068.67,-87.5 1068.67,-150.5"/>
<text text-anchor="middle" x="1032.67" y="-122.6" font-family="MS Gothic" font-size="13.00">15品目転</text>
<text text-anchor="middle" x="1032.67" y="-108.6" font-family="MS Gothic" font-size="13.00">換</text>
</g>
<!-- 8&#45;&gt;15 -->
<g id="edge18" class="edge">
<title>8&#45;&gt;15</title>
<path fill="none" stroke="#808080" d="M849.97,-32.03C880,-20.87 923.62,-10.62 957.78,-27 980.21,-37.75 997.98,-59 1010.47,-78.37"/>
<polygon fill="#808080" stroke="#808080" points="1007.62,-80.4 1015.84,-87.09 1013.58,-76.74 1007.62,-80.4"/>
<text text-anchor="middle" x="999.14" y="-72.38" font-family="Times,serif" font-size="14.00">c</text>
</g>
<!-- 10 -->
<g id="node11" class="node">
<title>10</title>
<polygon fill="#f0e68c" stroke="#808080" points="849.78,-160.5 777.78,-160.5 777.78,-97.5 849.78,-97.5 849.78,-160.5"/>
<text text-anchor="middle" x="813.78" y="-132" font-family="MS Gothic" font-size="10.00">10ノウハ</text>
<text text-anchor="middle" x="813.78" y="-121" font-family="MS Gothic" font-size="10.00">ウの習得</text>
</g>
<!-- 9&#45;&gt;10 -->
<g id="edge13" class="edge">
<title>9&#45;&gt;10</title>
<path fill="none" stroke="#808080" d="M741.78,-108.91C750.11,-111.26 759.11,-113.81 767.81,-116.27"/>
<polygon fill="#808080" stroke="#808080" points="766.88,-119.65 777.45,-119 768.79,-112.91 766.88,-119.65"/>
<text text-anchor="middle" x="757.71" y="-118.5" font-family="Times,serif" font-size="14.00">i</text>
</g>
<!-- 11 -->
<g id="node12" class="node">
<title>11</title>
<polygon fill="#f0e68c" stroke="#808080" points="957.78,-99.5 885.78,-99.5 885.78,-36.5 957.78,-36.5 957.78,-99.5"/>
<text text-anchor="middle" x="921.78" y="-76.5" font-family="MS Gothic" font-size="10.00">11機械、</text>
<text text-anchor="middle" x="921.78" y="-65.5" font-family="MS Gothic" font-size="10.00">設備費等の</text>
<text text-anchor="middle" x="921.78" y="-54.5" font-family="MS Gothic" font-size="10.00">調整</text>
</g>
<!-- 10&#45;&gt;11 -->
<g id="edge14" class="edge">
<title>10&#45;&gt;11</title>
<path fill="none" stroke="#808080" d="M849.78,-108.86C858.38,-103.91 867.69,-98.55 876.65,-93.4"/>
<polygon fill="#808080" stroke="#808080" points="878.53,-96.35 885.45,-88.33 875.04,-90.28 878.53,-96.35"/>
<text text-anchor="middle" x="873.96" y="-101" font-family="Times,serif" font-size="14.00">i</text>
</g>
<!-- 11&#45;&gt;15 -->
<g id="edge19" class="edge">
<title>11&#45;&gt;15</title>
<path fill="none" stroke="#808080" d="M957.83,-84.42C967.16,-88.79 977.37,-93.57 987.13,-98.14"/>
<polygon fill="#808080" stroke="#808080" points="985.77,-101.37 996.31,-102.44 988.74,-95.03 985.77,-101.37"/>
<text text-anchor="middle" x="976.31" y="-98.7" font-family="Times,serif" font-size="14.00">i</text>
</g>
<!-- 13 -->
<g id="node14" class="node">
<title>13</title>
<polygon fill="#f0e68c" stroke="#808080" points="633.78,-221.5 561.78,-221.5 561.78,-158.5 633.78,-158.5 633.78,-221.5"/>
<text text-anchor="middle" x="597.78" y="-198.5" font-family="MS Gothic" font-size="10.00">13適応策</text>
<text text-anchor="middle" x="597.78" y="-187.5" font-family="MS Gothic" font-size="10.00">のための施</text>
<text text-anchor="middle" x="597.78" y="-176.5" font-family="MS Gothic" font-size="10.00">策基盤整備</text>
</g>
<!-- 12&#45;&gt;13 -->
<g id="edge17" class="edge">
<title>12&#45;&gt;13</title>
<path fill="none" stroke="#808080" d="M490.78,-139C512.5,-140.42 534.5,-149.49 552.79,-159.6"/>
<polygon fill="#808080" stroke="#808080" points="551.05,-162.64 561.45,-164.62 554.55,-156.58 551.05,-162.64"/>
<text text-anchor="middle" x="541.53" y="-159.15" font-family="Times,serif" font-size="14.00">c</text>
</g>
<!-- 12&#45;&gt;15 -->
<g id="edge20" class="edge">
<title>12&#45;&gt;15</title>
<path fill="none" stroke="#808080" d="M490.78,-139C554.39,-143.15 570.41,-143.17 633.78,-150 698.02,-156.93 713.32,-165.54 777.78,-170 809.71,-172.21 820.63,-183.2 849.78,-170 871.87,-160 864.05,-139.75 885.78,-129 916.82,-113.65 956.21,-111.82 986.23,-113.46"/>
<polygon fill="#808080" stroke="#808080" points="986.21,-116.96 996.43,-114.16 986.7,-109.98 986.21,-116.96"/>
<path fill="none" stroke="#808080" d="M418.08,-143.07C438.68,-139.85 465.18,-137.1 488.78,-139"/>
<text text-anchor="middle" x="470.18" y="-142.64" font-family="Times,serif" font-size="14.00">p</text>
</g>
<!-- 13&#45;&gt;15 -->
<g id="edge21" class="edge">
<title>13&#45;&gt;15</title>
<path fill="none" stroke="#808080" d="M633.83,-196.3C712.63,-209.78 901.27,-238.09 957.78,-211 980.21,-200.25 997.98,-179 1010.47,-159.63"/>
<polygon fill="#808080" stroke="#808080" points="1013.58,-161.26 1015.84,-150.91 1007.62,-157.6 1013.58,-161.26"/>
<text text-anchor="middle" x="1013.54" y="-167.08" font-family="Times,serif" font-size="14.00">p</text>
</g>
<!-- 14 -->
<g id="node15" class="node">
<title>14</title>
<polygon fill="#f0e68c" stroke="#808080" points="957.78,-201.5 885.78,-201.5 885.78,-138.5 957.78,-138.5 957.78,-201.5"/>
<text text-anchor="middle" x="921.78" y="-178.5" font-family="MS Gothic" font-size="10.00">14流通加</text>
<text text-anchor="middle" x="921.78" y="-167.5" font-family="MS Gothic" font-size="10.00">工販売体制</text>
<text text-anchor="middle" x="921.78" y="-156.5" font-family="MS Gothic" font-size="10.00">整備</text>
</g>
<!-- 14&#45;&gt;15 -->
<g id="edge22" class="edge">
<title>14&#45;&gt;15</title>
<path fill="none" stroke="#808080" d="M957.83,-153.58C967.16,-149.21 977.37,-144.43 987.13,-139.86"/>
<polygon fill="#808080" stroke="#808080" points="988.74,-142.97 996.31,-135.56 985.77,-136.63 988.74,-142.97"/>
<text text-anchor="middle" x="983.48" y="-147.2" font-family="Times,serif" font-size="14.00">p</text>
</g>
</g>
</svg>
