<?xml version="1.0" encoding="utf-8"?>
<!-- Generator: Adobe Illustrator 25.2.3, SVG Export Plug-In . SVG Version: 6.00 Build 0)  -->
<svg version="1.1" id="レイヤー_1" xmlns="http://www.w3.org/2000/svg" xmlns:xlink="http://www.w3.org/1999/xlink" x="0px"
	 y="0px" viewBox="0 0 431.76 383.51" style="enable-background:new 0 0 431.76 383.51;" xml:space="preserve">
<style type="text/css">
	.st0{fill:#FFFFFF;stroke:#000000;stroke-width:3;stroke-miterlimit:10;}
	.st1{display:none;fill:none;stroke:#000000;stroke-width:3;stroke-miterlimit:10;}
	.st2{fill:none;stroke:#000000;stroke-width:3;stroke-miterlimit:10;}
</style>
<polygon class="st0" points="281.52,79.24 151.24,79.24 86.1,192.07 151.24,304.9 281.52,304.9 346.66,192.07 "/>
<polygon class="st1" points="298.37,50.07 134.39,50.07 52.41,192.07 134.39,334.08 298.37,334.08 380.35,192.07 "/>
<line class="st2" x1="151.53" y1="79.74" x2="134.39" y2="50.07"/>
<line class="st2" x1="280.89" y1="79.74" x2="298.37" y2="50.07"/>
<line class="st2" x1="151.53" y1="304.4" x2="134.39" y2="334.08"/>
<line class="st2" x1="280.89" y1="304.4" x2="298.37" y2="334.08"/>
<line class="st2" x1="52.41" y1="192.07" x2="86.1" y2="192.07"/>
<line class="st2" x1="346.66" y1="192.07" x2="380.35" y2="192.07"/>
<circle class="st0" cx="122.84" cy="26.28" r="24.78"/>
<circle class="st0" cx="307.96" cy="26.28" r="24.78"/>
<circle class="st0" cx="122.84" cy="357.23" r="24.78"/>
<circle class="st0" cx="26.28" cy="188.92" r="24.78"/>
<circle class="st0" cx="405.48" cy="188.92" r="24.78"/>
<circle class="st0" cx="307.96" cy="356.86" r="24.78"/>
<g>
	<path d="M124.32,22.31v13.55h-2.97V22.31h-5.72V19.8h14.41v2.51H124.32z"/>
</g>
<g>
	<path d="M308.28,34.8c-5.33,0-7.68-4-7.68-8.41c0-4.25,2.18-8.71,7.9-8.71c4.58,0,6.56,3.04,6.82,5.59h-3.15
		c-0.62-2.97-3.17-2.97-3.61-2.97c-2.51,0-4.82,2.02-4.82,6.05c0,3.76,2.02,5.85,4.49,5.85c1.06,0,2.11-0.4,2.93-1.19
		c0.73-0.7,0.88-1.25,1.01-2.16h3.15C315.03,31.54,312.98,34.8,308.28,34.8z"/>
</g>
<g>
	<path d="M405.69,197.78c-4.75,0-8.03-3.39-8.03-8.56c0-5.19,3.3-8.56,8.03-8.56s8.05,3.37,8.05,8.56
		C413.74,194.39,410.44,197.78,405.69,197.78z M405.69,183.34c-2.75,0-4.91,2.07-4.91,5.88c0,3.78,2.13,5.9,4.91,5.9
		c2.9,0,4.93-2.24,4.93-5.9C410.62,185.57,408.57,183.34,405.69,183.34z"/>
</g>
<g>
	<path d="M311.69,364.85c-0.33-0.31-0.53-0.55-0.53-1.72v-1.94c0-1.14-0.35-2.64-2.07-2.64h-4.12v6.29h-2.97v-16.06h7.57
		c2.99,0,4.95,1.85,4.95,4.36c0,1.06-0.35,2.02-0.99,2.75c-0.62,0.7-1.14,0.99-2.51,1.3c1.56,0.22,3.08,0.68,3.08,3.7v1.63
		c0,1.61,0.59,2.02,1.03,2.33H311.69z M309.18,351.3h-4.2v4.75h3.72c1.65,0,2.66-0.86,2.66-2.51
		C311.36,352.09,310.5,351.3,309.18,351.3z"/>
</g>
<g>
	<path d="M125.37,359.49h-4.42v5.72h-2.97v-16.06h7.39c3.5,0,5.48,2.35,5.48,5.08C130.85,357.47,128.36,359.49,125.37,359.49z
		 M124.93,351.66h-3.98v5.32h3.98c1.65,0,2.79-0.9,2.79-2.77C127.72,352.27,126.49,351.66,124.93,351.66z"/>
</g>
<g>
	<path d="M25.62,197.25v-16.06h2.97v16.06H25.62z"/>
</g>
</svg>
